<svg width="800px" height="800px" viewBox="0 0 32 32" xmlns="http://www.w3.org/2000/svg">

<defs id="element_8b7ea81e">

<style id="element_3e5b5ccc">.cls-1{fill:#77acf1;}.cls-2{fill:#04009a;}</style>

</defs>

<g data-name="39. Office" id="_39._Office">

<path class="cls-1" d="M21,8H11a1,1,0,0,1,0-2H21a1,1,0,0,1,0,2Z" id="element_09681aec"></path>

<path class="cls-1" d="M21,12H11a1,1,0,0,1,0-2H21a1,1,0,0,1,0,2Z" id="element_20d0fe9c"></path>

<path class="cls-1" d="M21,16H11a1,1,0,0,1,0-2H21a1,1,0,0,1,0,2Z" id="element_20a728a9"></path>

<path class="cls-1" d="M21,20H11a1,1,0,0,1,0-2H21a1,1,0,0,1,0,2Z" id="element_f106397e"></path>

<path class="cls-1" d="M7,16H5a1,1,0,0,1,0-2H7a1,1,0,0,1,0,2Z" id="element_082cc1c4"></path>

<path class="cls-1" d="M7,20H5a1,1,0,0,1,0-2H7a1,1,0,0,1,0,2Z" id="element_b7e4ce79"></path>

<path class="cls-1" d="M27,16H25a1,1,0,0,1,0-2h2a1,1,0,0,1,0,2Z" id="element_0cb347fa"></path>

<path class="cls-1" d="M27,20H25a1,1,0,0,1,0-2h2a1,1,0,0,1,0,2Z" id="element_97446d3e"></path>

<path class="cls-2" d="M12,30H7a1,1,0,0,1-1-1V5A3,3,0,0,1,9,2H23a3,3,0,0,1,3,3V7a1,1,0,0,1-2,0V5a1,1,0,0,0-1-1H9A1,1,0,0,0,8,5V28h4a1,1,0,0,1,0,2Z" id="element_0aa7771c"></path>

<path class="cls-2" d="M25,30H16a1,1,0,0,1,0-2h8V14a1,1,0,0,1,2,0V29A1,1,0,0,1,25,30Z" id="element_f29cde1a"></path>

<path class="cls-2" d="M7,30H1a1,1,0,0,1-1-1V13a3,3,0,0,1,3-3H7a1,1,0,0,1,1,1V29A1,1,0,0,1,7,30ZM2,28H6V12H3a1,1,0,0,0-1,1Z" id="element_3af608da"></path>

<path class="cls-2" d="M31,30H25a1,1,0,0,1-1-1V11a1,1,0,0,1,1-1h4a3,3,0,0,1,3,3V29A1,1,0,0,1,31,30Zm-5-2h4V13a1,1,0,0,0-1-1H26Z" id="element_074bb943"></path>

<path class="cls-2" d="M20,30a1,1,0,0,1-1-1V24H13v5a1,1,0,0,1-2,0V24a2,2,0,0,1,2-2h6a2,2,0,0,1,2,2v5A1,1,0,0,1,20,30Z" id="element_f8ce57d5"></path>

</g>

</svg>